<svg id="Group_2" data-name="Group 2" xmlns="http://www.w3.org/2000/svg" width="888" height="485.489" viewBox="0 0 888 485.489">
  <path id="Path_1" data-name="Path 1" d="M275.412,460.3H246.993a3.768,3.768,0,0,0-3.768,3.768v12.474a3.768,3.768,0,0,0,3.768,3.768H251.7V499h19V480.31h4.709a3.768,3.768,0,0,0,3.768-3.768V464.068a3.768,3.768,0,0,0-3.768-3.768Z" transform="translate(-156 -207.255)" fill="#ffb344"/>
  <path id="Path_2" data-name="Path 2" d="M303.877,574.461a146.1,146.1,0,0,1-25.418-86.624,3.081,3.081,0,0,0-2.405-3.075v-5.39H246.039v5.315h-.414a3.08,3.08,0,0,0-3.067,3.308q3.547,49.442-23.954,88.677a8.487,8.487,0,0,0-1.536,5.143l3.282,101.518a8.788,8.788,0,0,0,8.713,8.482h67.887a8.791,8.791,0,0,0,8.718-8.632l1.265-98.566a17.789,17.789,0,0,0-3.057-10.157Z" transform="translate(-156 -207.255)" fill="#00a19d"/>
  <path id="Path_3" data-name="Path 3" d="M269.488,464.365a8.129,8.129,0,0,1-16.258,0" transform="translate(-156 -207.255)" opacity="0.2"/>
  <path id="Path_4" data-name="Path 4" d="M293.13,608.182h-8.221a21.576,21.576,0,0,0-42.649,0h-8.221a6.067,6.067,0,0,0-6,6.989l8.929,58.041h51.274l10.846-57.846a6.067,6.067,0,0,0-5.963-7.185Z" transform="translate(-156 -207.255)" fill="#ffb344"/>
  <path id="Path_5" data-name="Path 5" d="M827.952,307.634l-1.972,78.814-2.442,97.733H740.414l-2.862-114.506L736,307.634Z" fill="#fff8e5"/>
  <rect id="Rectangle_1" data-name="Rectangle 1" width="11.77" height="155.95" transform="translate(775.723 265.704)" fill="#ffb344"/>
  <path id="Path_6" data-name="Path 6" d="M978.067,574.275,975.841,686.3H900.074l-2.608-131.244a51.634,51.634,0,0,1,40.827,5.615C950.952,568.154,965.173,572.184,978.067,574.275Z" transform="translate(-156 -207.255)" fill="#00a19d"/>
  <rect id="Rectangle_2" data-name="Rectangle 2" width="10.8" height="10.8" transform="translate(752.031 379.63)" fill="#e6e6e6"/>
  <rect id="Rectangle_3" data-name="Rectangle 3" width="10.8" height="10.8" transform="translate(759.387 357.562)" fill="#e6e6e6"/>
  <rect id="Rectangle_4" data-name="Rectangle 4" width="10.8" height="10.8" transform="translate(784.707 366.408) rotate(36.562)" fill="#e6e6e6"/>
  <rect id="Rectangle_5" data-name="Rectangle 5" width="10.8" height="10.8" transform="translate(804.22 385.543) rotate(36.562)" fill="#e6e6e6"/>
  <rect id="Rectangle_6" data-name="Rectangle 6" width="10.8" height="10.8" transform="translate(771.117 396.578) rotate(36.562)" fill="#e6e6e6"/>
  <circle id="Ellipse_1" data-name="Ellipse 1" cx="2.207" cy="2.207" r="2.207" transform="translate(802.941 348.828)" fill="#3f3d56"/>
  <circle id="Ellipse_2" data-name="Ellipse 2" cx="2.207" cy="2.207" r="2.207" transform="translate(758.068 334.116)" fill="#3f3d56"/>
  <circle id="Ellipse_3" data-name="Ellipse 3" cx="2.207" cy="2.207" r="2.207" transform="translate(795.585 318.668)" fill="#3f3d56"/>
  <path id="Path_43" data-name="Path 43" d="M241.754,0C375.271,0,483.508,108.237,483.508,241.754S375.271,483.508,241.754,483.508,0,375.271,0,241.754,108.237,0,241.754,0Z" transform="translate(202.754 0)" fill="#ffb344"/>
  <path id="Path_7" data-name="Path 7" d="M600.508,625.467a176.456,176.456,0,1,1,124.774-51.683A176.456,176.456,0,0,1,600.508,625.467Zm0-342.031c-91.3,0-165.574,74.276-165.574,165.574S509.21,614.584,600.508,614.584,766.082,540.307,766.082,449.01,691.806,283.435,600.508,283.435Z" transform="translate(-156 -207.255)" opacity="0.2"/>
  <circle id="Ellipse_5" data-name="Ellipse 5" cx="171.016" cy="171.016" r="171.016" transform="translate(273.492 70.738)" fill="#fff8e5"/>
  <path id="Path_8" data-name="Path 8" d="M473.327,380.627a21.7,21.7,0,1,1,38.681-19.7l48.316,94.878a21.7,21.7,0,0,1-38.681,19.7Z" transform="translate(-156 -207.255)" fill="#ff6584"/>
  <path id="Path_9" data-name="Path 9" d="M478.717,391.21l-2.23-4.379c11.129-8.647,24.2-15.007,38.681-19.7l2.23,4.379C501.722,374.776,488.386,380.817,478.717,391.21Z" transform="translate(-156 -207.255)" opacity="0.2"/>
  <path id="Path_10" data-name="Path 10" d="M489.123,411.645l-2.23-4.379c11.129-8.647,24.2-15.007,38.681-19.7l2.23,4.379C512.129,395.211,498.793,401.252,489.123,411.645Z" transform="translate(-156 -207.255)" opacity="0.2"/>
  <path id="Path_11" data-name="Path 11" d="M499.53,432.081,497.3,427.7c11.129-8.647,24.2-15.007,38.681-19.7l2.23,4.379C522.536,415.647,509.2,421.688,499.53,432.081Z" transform="translate(-156 -207.255)" opacity="0.2"/>
  <path id="Path_12" data-name="Path 12" d="M509.936,452.516l-2.23-4.379c11.129-8.647,24.2-15.007,38.681-19.7l2.23,4.379C532.942,436.082,519.606,442.123,509.936,452.516Z" transform="translate(-156 -207.255)" opacity="0.2"/>
  <path id="Path_13" data-name="Path 13" d="M520.343,472.951l-2.23-4.379c11.129-8.647,24.2-15.007,38.681-19.7l2.23,4.379C543.349,456.517,530.013,462.558,520.343,472.951Z" transform="translate(-156 -207.255)" opacity="0.2"/>
  <path id="Path_14" data-name="Path 14" d="M437.079,416.146a21.7,21.7,0,1,1,38.681-19.7l48.316,94.878a21.7,21.7,0,0,1-38.681,19.7Z" transform="translate(-156 -207.255)" fill="#ff6584"/>
  <path id="Path_15" data-name="Path 15" d="M442.468,426.729l-2.23-4.379c11.129-8.647,24.2-15.007,38.681-19.7l2.23,4.379C465.474,410.3,452.138,416.336,442.468,426.729Z" transform="translate(-156 -207.255)" opacity="0.2"/>
  <path id="Path_16" data-name="Path 16" d="M452.875,447.164l-2.23-4.379c11.129-8.647,24.2-15.007,38.681-19.7l2.23,4.379C475.881,430.73,462.544,436.771,452.875,447.164Z" transform="translate(-156 -207.255)" opacity="0.2"/>
  <path id="Path_17" data-name="Path 17" d="M463.281,467.6l-2.23-4.379c11.129-8.647,24.2-15.007,38.681-19.7l2.23,4.379C486.287,451.166,472.951,457.207,463.281,467.6Z" transform="translate(-156 -207.255)" opacity="0.2"/>
  <path id="Path_18" data-name="Path 18" d="M473.688,488.035l-2.23-4.379c11.129-8.647,24.2-15.007,38.681-19.7l2.23,4.379C496.694,471.6,483.358,477.642,473.688,488.035Z" transform="translate(-156 -207.255)" opacity="0.2"/>
  <path id="Path_19" data-name="Path 19" d="M484.1,508.47l-2.23-4.379c11.129-8.647,24.2-15.007,38.681-19.7l2.23,4.379C507.1,492.036,493.764,498.077,484.1,508.47Z" transform="translate(-156 -207.255)" opacity="0.2"/>
  <path id="Path_20" data-name="Path 20" d="M714.778,454.451h.153a25.888,25.888,0,0,0,24.239-16.236,84.5,84.5,0,0,0,5.923-31.694c-.271-45.911-37.622-83.575-83.529-84.21a84.744,84.744,0,0,0-35.277,162.32,25.667,25.667,0,0,0,28.506-5.286A84.458,84.458,0,0,1,714.778,454.451Z" transform="translate(-156 -207.255)" fill="#e6e2db"/>
  <circle id="Ellipse_6" data-name="Ellipse 6" cx="27.984" cy="27.984" r="27.984" transform="translate(487.262 165.575)" fill="#f9a825"/>
  <circle id="Ellipse_7" data-name="Ellipse 7" cx="3.297" cy="3.297" r="3.297" transform="translate(451.129 183.818)" fill="#3f3d56"/>
  <circle id="Ellipse_8" data-name="Ellipse 8" cx="3.297" cy="3.297" r="3.297" transform="translate(342.301 186.928)" fill="#3f3d56"/>
  <circle id="Ellipse_9" data-name="Ellipse 9" cx="3.297" cy="3.297" r="3.297" transform="translate(468.699 149.652)" fill="#3f3d56"/>
  <circle id="Ellipse_10" data-name="Ellipse 10" cx="3.297" cy="3.297" r="3.297" transform="translate(468.605 244.676)" fill="#3f3d56"/>
  <circle id="Ellipse_11" data-name="Ellipse 11" cx="3.297" cy="3.297" r="3.297" transform="translate(533.902 142.844)" fill="#3f3d56"/>
  <circle id="Ellipse_12" data-name="Ellipse 12" cx="3.297" cy="3.297" r="3.297" transform="translate(320.91 233.016)" fill="#3f3d56"/>
  <circle id="Ellipse_13" data-name="Ellipse 13" cx="3.297" cy="3.297" r="3.297" transform="translate(345.008 280.434)" fill="#3f3d56"/>
  <circle id="Ellipse_14" data-name="Ellipse 14" cx="12.438" cy="12.438" r="12.438" transform="translate(487.263 277.512)" fill="#ff6584"/>
  <path id="Path_21" data-name="Path 21" d="M665.028,497.982a9.328,9.328,0,1,1-18.656,0" transform="translate(-156 -207.255)" opacity="0.2"/>
  <path id="Path_22" data-name="Path 22" d="M646.371,496.428a9.328,9.328,0,1,1,18.656,0" transform="translate(-156 -207.255)" opacity="0.2"/>
  <ellipse id="Ellipse_15" data-name="Ellipse 15" cx="0.777" cy="1.166" rx="0.777" ry="1.166" transform="translate(494.258 284.508)" fill="#ff6584"/>
  <ellipse id="Ellipse_16" data-name="Ellipse 16" cx="0.777" cy="1.166" rx="0.777" ry="1.166" transform="translate(498.923 282.953)" fill="#ff6584"/>
  <ellipse id="Ellipse_17" data-name="Ellipse 17" cx="0.777" cy="1.166" rx="0.777" ry="1.166" transform="translate(498.923 293.059)" fill="#ff6584"/>
  <ellipse id="Ellipse_18" data-name="Ellipse 18" cx="0.777" cy="1.166" rx="0.777" ry="1.166" transform="translate(503.587 286.84)" fill="#ff6584"/>
  <ellipse id="Ellipse_19" data-name="Ellipse 19" cx="0.777" cy="1.166" rx="0.777" ry="1.166" transform="translate(502.809 295.391)" fill="#ff6584"/>
  <ellipse id="Ellipse_20" data-name="Ellipse 20" cx="0.777" cy="1.166" rx="0.777" ry="1.166" transform="translate(493.481 291.504)" fill="#ff6584"/>
  <circle id="Ellipse_21" data-name="Ellipse 21" cx="12.438" cy="12.438" r="12.438" transform="translate(512.138 244.087)" fill="#ff6584"/>
  <path id="Path_23" data-name="Path 23" d="M689.9,464.556a9.328,9.328,0,0,1-18.656,0" transform="translate(-156 -207.255)" opacity="0.2"/>
  <path id="Path_24" data-name="Path 24" d="M671.246,463a9.328,9.328,0,1,1,18.656,0" transform="translate(-156 -207.255)" opacity="0.2"/>
  <ellipse id="Ellipse_22" data-name="Ellipse 22" cx="0.777" cy="1.166" rx="0.777" ry="1.166" transform="translate(519.133 251.082)" fill="#ff6584"/>
  <ellipse id="Ellipse_23" data-name="Ellipse 23" cx="0.777" cy="1.166" rx="0.777" ry="1.166" transform="translate(523.798 249.527)" fill="#ff6584"/>
  <ellipse id="Ellipse_24" data-name="Ellipse 24" cx="0.777" cy="1.166" rx="0.777" ry="1.166" transform="translate(523.798 259.633)" fill="#ff6584"/>
  <ellipse id="Ellipse_25" data-name="Ellipse 25" cx="0.777" cy="1.166" rx="0.777" ry="1.166" transform="translate(528.462 253.414)" fill="#ff6584"/>
  <ellipse id="Ellipse_26" data-name="Ellipse 26" cx="0.777" cy="1.166" rx="0.777" ry="1.166" transform="translate(527.684 261.965)" fill="#ff6584"/>
  <ellipse id="Ellipse_27" data-name="Ellipse 27" cx="0.777" cy="1.166" rx="0.777" ry="1.166" transform="translate(518.356 258.078)" fill="#ff6584"/>
  <circle id="Ellipse_28" data-name="Ellipse 28" cx="12.438" cy="12.438" r="12.438" transform="translate(537.013 261.188)" fill="#6c63ff"/>
  <path id="Path_25" data-name="Path 25" d="M714.778,481.658a9.328,9.328,0,1,1-18.656,0" transform="translate(-156 -207.255)" opacity="0.2"/>
  <path id="Path_26" data-name="Path 26" d="M696.121,480.1a9.328,9.328,0,1,1,18.656,0" transform="translate(-156 -207.255)" opacity="0.2"/>
  <ellipse id="Ellipse_29" data-name="Ellipse 29" cx="0.777" cy="1.166" rx="0.777" ry="1.166" transform="translate(544.008 268.184)" fill="#6c63ff"/>
  <ellipse id="Ellipse_30" data-name="Ellipse 30" cx="0.777" cy="1.166" rx="0.777" ry="1.166" transform="translate(548.673 266.629)" fill="#6c63ff"/>
  <ellipse id="Ellipse_31" data-name="Ellipse 31" cx="0.777" cy="1.166" rx="0.777" ry="1.166" transform="translate(548.673 276.735)" fill="#6c63ff"/>
  <ellipse id="Ellipse_32" data-name="Ellipse 32" cx="0.777" cy="1.166" rx="0.777" ry="1.166" transform="translate(553.337 270.516)" fill="#6c63ff"/>
  <ellipse id="Ellipse_33" data-name="Ellipse 33" cx="0.777" cy="1.166" rx="0.777" ry="1.166" transform="translate(552.559 279.067)" fill="#6c63ff"/>
  <ellipse id="Ellipse_34" data-name="Ellipse 34" cx="0.777" cy="1.166" rx="0.777" ry="1.166" transform="translate(543.231 275.18)" fill="#6c63ff"/>
  <circle id="Ellipse_35" data-name="Ellipse 35" cx="12.438" cy="12.438" r="12.438" transform="translate(474.824 262.742)" fill="#6c63ff"/>
  <path id="Path_27" data-name="Path 27" d="M652.59,483.213a9.328,9.328,0,1,1-18.656,0" transform="translate(-156 -207.255)" opacity="0.2"/>
  <path id="Path_28" data-name="Path 28" d="M633.934,481.658a9.328,9.328,0,1,1,18.656,0" transform="translate(-156 -207.255)" opacity="0.2"/>
  <ellipse id="Ellipse_36" data-name="Ellipse 36" cx="0.777" cy="1.166" rx="0.777" ry="1.166" transform="translate(481.821 269.738)" fill="#6c63ff"/>
  <ellipse id="Ellipse_37" data-name="Ellipse 37" cx="0.777" cy="1.166" rx="0.777" ry="1.166" transform="translate(486.485 268.184)" fill="#6c63ff"/>
  <ellipse id="Ellipse_38" data-name="Ellipse 38" cx="0.777" cy="1.166" rx="0.777" ry="1.166" transform="translate(486.485 278.289)" fill="#6c63ff"/>
  <ellipse id="Ellipse_39" data-name="Ellipse 39" cx="0.777" cy="1.166" rx="0.777" ry="1.166" transform="translate(491.149 272.07)" fill="#6c63ff"/>
  <ellipse id="Ellipse_40" data-name="Ellipse 40" cx="0.777" cy="1.166" rx="0.777" ry="1.166" transform="translate(490.372 280.621)" fill="#6c63ff"/>
  <ellipse id="Ellipse_41" data-name="Ellipse 41" cx="0.777" cy="1.166" rx="0.777" ry="1.166" transform="translate(481.044 276.735)" fill="#6c63ff"/>
  <circle id="Ellipse_42" data-name="Ellipse 42" cx="12.438" cy="12.438" r="12.438" transform="translate(502.809 268.184)" fill="#6c63ff"/>
  <path id="Path_29" data-name="Path 29" d="M680.575,488.654a9.328,9.328,0,1,1-18.656,0" transform="translate(-156 -207.255)" opacity="0.2"/>
  <path id="Path_30" data-name="Path 30" d="M661.918,487.1a9.328,9.328,0,1,1,18.656,0" transform="translate(-156 -207.255)" opacity="0.2"/>
  <ellipse id="Ellipse_43" data-name="Ellipse 43" cx="0.777" cy="1.166" rx="0.777" ry="1.166" transform="translate(509.805 275.18)" fill="#6c63ff"/>
  <ellipse id="Ellipse_44" data-name="Ellipse 44" cx="0.777" cy="1.166" rx="0.777" ry="1.166" transform="translate(514.469 273.625)" fill="#6c63ff"/>
  <ellipse id="Ellipse_45" data-name="Ellipse 45" cx="0.777" cy="1.166" rx="0.777" ry="1.166" transform="translate(514.469 283.731)" fill="#6c63ff"/>
  <ellipse id="Ellipse_46" data-name="Ellipse 46" cx="0.777" cy="1.166" rx="0.777" ry="1.166" transform="translate(519.133 277.512)" fill="#6c63ff"/>
  <ellipse id="Ellipse_47" data-name="Ellipse 47" cx="0.777" cy="1.166" rx="0.777" ry="1.166" transform="translate(518.356 286.063)" fill="#6c63ff"/>
  <ellipse id="Ellipse_48" data-name="Ellipse 48" cx="0.777" cy="1.166" rx="0.777" ry="1.166" transform="translate(509.028 282.176)" fill="#6c63ff"/>
  <circle id="Ellipse_49" data-name="Ellipse 49" cx="12.438" cy="12.438" r="12.438" transform="translate(522.242 281.398)" fill="#ff6584"/>
  <path id="Path_31" data-name="Path 31" d="M700.008,501.869a9.328,9.328,0,1,1-18.656,0" transform="translate(-156 -207.255)" opacity="0.2"/>
  <path id="Path_32" data-name="Path 32" d="M681.352,500.314a9.328,9.328,0,1,1,18.656,0" transform="translate(-156 -207.255)" opacity="0.2"/>
  <ellipse id="Ellipse_50" data-name="Ellipse 50" cx="0.777" cy="1.166" rx="0.777" ry="1.166" transform="translate(529.239 288.395)" fill="#ff6584"/>
  <ellipse id="Ellipse_51" data-name="Ellipse 51" cx="0.777" cy="1.166" rx="0.777" ry="1.166" transform="translate(533.903 286.84)" fill="#ff6584"/>
  <ellipse id="Ellipse_52" data-name="Ellipse 52" cx="0.777" cy="1.166" rx="0.777" ry="1.166" transform="translate(533.903 296.945)" fill="#ff6584"/>
  <ellipse id="Ellipse_53" data-name="Ellipse 53" cx="0.777" cy="1.166" rx="0.777" ry="1.166" transform="translate(538.567 290.727)" fill="#ff6584"/>
  <ellipse id="Ellipse_54" data-name="Ellipse 54" cx="0.777" cy="1.166" rx="0.777" ry="1.166" transform="translate(537.79 299.278)" fill="#ff6584"/>
  <ellipse id="Ellipse_55" data-name="Ellipse 55" cx="0.777" cy="1.166" rx="0.777" ry="1.166" transform="translate(528.462 295.391)" fill="#ff6584"/>
  <circle id="Ellipse_56" data-name="Ellipse 56" cx="3.297" cy="3.297" r="3.297" transform="translate(371.437 243.121)" fill="#3f3d56"/>
  <path id="Path_33" data-name="Path 33" d="M464.345,366.08,385.17,344.123l3.033-11.266,79.175,21.958Z" fill="#f9a825"/>
  <path id="Path_34" data-name="Path 34" d="M608.738,569.57a218.267,218.267,0,0,1-82.078,0V557.892a250.991,250.991,0,0,0,82.078,0Z" transform="translate(-156 -207.255)" fill="#f9a825"/>
  <path id="Path_35" data-name="Path 35" d="M617.176,534.536a218.267,218.267,0,0,1-82.078,0V522.857a250.99,250.99,0,0,0,82.078,0Z" transform="translate(-156 -207.255)" fill="#f9a825"/>
  <path id="Path_36" data-name="Path 36" d="M645.558,548.549a218.268,218.268,0,0,1-82.078,0V536.871a250.994,250.994,0,0,0,82.078,0Z" transform="translate(-156 -207.255)" fill="#f9a825"/>
  <path id="Path_37" data-name="Path 37" d="M652.462,561.785a218.268,218.268,0,0,1-82.078,0V550.107a250.994,250.994,0,0,0,82.078,0Z" transform="translate(-156 -207.255)" fill="#f9a825"/>
  <path id="Path_38" data-name="Path 38" d="M520.531,371.824l-80.977,13.6L437.676,373.9l80.976-13.6Z" fill="#f9a825"/>
  <path id="Path_39" data-name="Path 39" d="M664.435,580.577a219.97,219.97,0,0,1-74.58,34.784l-4.8-10.612a252.953,252.953,0,0,0,74.58-34.784Z" transform="translate(-156 -207.255)" fill="#f9a825"/>
  <path id="Path_40" data-name="Path 40" d="M657.689,545.166a219.967,219.967,0,0,1-74.58,34.784l-4.8-10.612a252.955,252.955,0,0,0,74.58-34.784Z" transform="translate(-156 -207.255)" fill="#f9a825"/>
  <path id="Path_41" data-name="Path 41" d="M689.243,545.872a219.97,219.97,0,0,1-74.58,34.784l-4.8-10.612a252.955,252.955,0,0,0,74.58-34.784Z" transform="translate(-156 -207.255)" fill="#f9a825"/>
  <path id="Path_42" data-name="Path 42" d="M700.962,554.972a219.97,219.97,0,0,1-74.58,34.784l-4.8-10.611a252.956,252.956,0,0,0,74.58-34.785Z" transform="translate(-156 -207.255)" fill="#f9a825"/>
  <rect id="Rectangle_7" data-name="Rectangle 7" width="3.887" height="3.887" transform="translate(442.953 324.93)" fill="#00bf71"/>
  <rect id="Rectangle_8" data-name="Rectangle 8" width="3.887" height="3.887" transform="translate(454.614 392.559)" fill="#00bf71"/>
  <rect id="Rectangle_9" data-name="Rectangle 9" width="3.887" height="3.887" transform="translate(392.426 324.93)" fill="#00bf71"/>
  <rect id="Rectangle_10" data-name="Rectangle 10" width="3.887" height="3.887" transform="translate(482.598 373.125)" fill="#00bf71"/>
  <rect id="Rectangle_11" data-name="Rectangle 11" width="3.887" height="3.887" transform="translate(484.93 350.582)" fill="#00bf71"/>
  <rect id="Rectangle_12" data-name="Rectangle 12" width="5.441" height="3.109" transform="translate(420.198 336.88) rotate(34.156)" fill="#00bf71"/>
  <rect id="Rectangle_13" data-name="Rectangle 13" width="5.441" height="3.109" transform="translate(466.06 345.431) rotate(34.156)" fill="#00bf71"/>
  <rect id="Rectangle_14" data-name="Rectangle 14" width="5.441" height="3.109" transform="translate(410.092 360.201) rotate(34.156)" fill="#00bf71"/>
  <rect id="Rectangle_15" data-name="Rectangle 15" width="5.441" height="3.109" transform="translate(446.161 358.531) rotate(124.156)" fill="#00bf71"/>
  <rect id="Rectangle_16" data-name="Rectangle 16" width="5.441" height="3.109" transform="translate(467.149 363.973) rotate(124.156)" fill="#00bf71"/>
  <rect id="Rectangle_17" data-name="Rectangle 17" width="5.441" height="3.109" transform="translate(523.119 345.316) rotate(124.156)" fill="#00bf71"/>
  <rect id="Rectangle_18" data-name="Rectangle 18" width="888" height="2.241" transform="translate(0 483.248)" fill="#3f3d56"/>
</svg>
